#N canvas 399 253 839 657 12;
#X obj 289 38 inlet;
#X obj 340 479 outlet~;
#X obj 292 80 bng 19 250 50 0 empty empty empty 0 -10 0 12 #fcfcfc #000000 #000000;
#X obj 341 398 *~;
#X obj 372 433 dac~;
#X msg 431 125 0;
#X msg 453 216 0.8;
#X msg 477 311 0;
#X obj 513 219 bng 19 250 50 0 empty empty empty 0 -10 0 12 #fcfcfc #000000 #000000;
#X obj 455 156 bng 19 250 50 0 empty empty empty 0 -10 0 12 #fcfcfc #000000 #000000;
#X obj 442 371 line~ 0 20;
#X msg 443 339 \$1 50;
#X obj 454 187 delay 10 10;
#X obj 297 261 osc~ \$1;
#X obj 477 282 delay \$2 10;
#X connect 0 0 2 0;
#X connect 2 0 5 0;
#X connect 2 0 13 0;
#X connect 3 0 4 0;
#X connect 3 0 1 0;
#X connect 5 0 11 0;
#X connect 5 0 9 0;
#X connect 6 0 11 0;
#X connect 7 0 11 0;
#X connect 8 0 14 0;
#X connect 9 0 12 0;
#X connect 10 0 3 1;
#X connect 11 0 10 0;
#X connect 12 0 6 0;
#X connect 12 0 8 0;
#X connect 13 0 3 0;
#X connect 14 0 7 0;
