#N canvas 667 241 264 310 12;
#X obj 109 103 i;
#X floatatom 111 220 5 0 0 0 - - - 0;
#X msg 149 188 1, f 4;
#X obj 109 53 bng 19 250 50 0 empty empty empty 0 -10 0 12 #fcfcfc #000000 #000000;
#X obj 145 104 + 1;
#X obj 109 21 inlet;
#X obj 111 248 outlet;
#X obj 21 20 loadbang;
#X msg 21 49 1;
#X obj 148 135 > \$1;
#X obj 147 161 sel 1;
#X connect 0 0 1 0;
#X connect 0 0 4 0;
#X connect 0 0 9 0;
#X connect 1 0 6 0;
#X connect 2 0 0 0;
#X connect 3 0 0 0;
#X connect 4 0 0 1;
#X connect 5 0 3 0;
#X connect 7 0 8 0;
#X connect 8 0 0 0;
#X connect 9 0 10 0;
#X connect 10 0 2 0;
