#N canvas 985 38 742 821 12;
#N canvas 121 159 450 300 ripple 0;
#X restore 52 129 pd ripple;
#N canvas 150 188 450 300 megaburst 0;
#X restore 50 160 pd megaburst;
#N canvas 121 159 450 300 donk 0;
#X restore 60 339 pd donk;
#N canvas 150 188 450 300 donk-low 0;
#X restore 59 369 pd donk-low;
#N canvas 150 188 450 300 strum 0;
#X restore 58 398 pd strum;
#N canvas 121 159 450 300 namer 0;
#X restore 263 337 pd namer;
#N canvas 121 159 450 300 room 0;
#X restore 277 505 pd room;
#N canvas 0 38 1728 970 leakypipe 0;
#X restore 53 194 pd leakypipe;
#N canvas 0 65 1728 1052 blip 0;
#X restore 58 534 pd blip;
#N canvas 0 65 1728 1052 birdcall 0;
#X restore 56 564 pd birdcall;
#N canvas 0 65 1728 1052 sweep 0;
#X restore 59 593 pd sweep;
#N canvas 0 65 1728 1052 bored 0;
#X restore 55 228 pd bored;
#N canvas 63 101 450 300 typer 0;
#X text 158 95 comment;
#X restore 264 368 pd typer;
#N canvas 63 101 450 300 unique-slider 0;
#X text 39 28 will output only every number once \, once they are all output \, then reset;
#X restore 435 502 pd unique-slider;
#N canvas 632 348 449 405 windchime 0;
#X obj 314 248 bng 19 250 50 0 empty empty empty 0 -10 0 12 #fcfcfc #000000 #000000;
#X obj 245 364 dac~;
#X obj 317 285 delay 100;
#X obj 193 51 tgl 54 0 empty empty empty 0 -10 0 12 #fcfcfc #000000 #000000 0 1;
#X floatatom 96 216 5 0 0 0 - - - 0;
#X obj 68 217 bng 19 250 50 0 empty empty empty 0 -10 0 12 #fcfcfc #000000 #000000;
#X floatatom 191 216 5 0 0 0 - - - 0;
#X floatatom 285 213 5 0 0 0 - - - 0;
#X obj 165 215 bng 19 250 50 0 empty empty empty 0 -10 0 12 #fcfcfc #000000 #000000;
#X obj 259 212 bng 19 250 50 0 empty empty empty 0 -10 0 12 #fcfcfc #000000 #000000;
#X obj 98 155 random 2000;
#X obj 288 122 metro 2000;
#X obj 194 125 metro 2000;
#X obj 99 125 metro 2000;
#X obj 193 155 random 3000;
#X obj 287 152 random 4000;
#X obj 193 185 + 750;
#X obj 287 182 + 1500;
#X obj 98 184 + 1500;
#X obj 181 364 dac~;
#N canvas 266 304 447 467 breathe 0;
#X text 79 60 Quantise things through multiplication?;
#X obj 116 145 snapshot~;
#X floatatom 117 226 5 0 0 0 - - - 0;
#X obj 46 109 metro 10;
#X obj 45 79 tgl 19 0 empty empty empty 0 -10 0 12 #fcfcfc #000000 #000000 0 1;
#X obj 41 26 loadbang;
#X msg 43 51 1;
#X obj 119 194 / 2;
#X msg 117 286 size \$1;
#X obj 115 259 * 10;
#X obj 116 168 + 10;
#X obj 118 112 osc~ 0.4;
#X obj 115 333 outlet;
#X connect 1 0 10 0;
#X connect 2 0 9 0;
#X connect 3 0 1 0;
#X connect 4 0 3 0;
#X connect 5 0 6 0;
#X connect 6 0 4 0;
#X connect 7 0 2 0;
#X connect 8 0 12 0;
#X connect 9 0 8 0;
#X connect 10 0 7 0;
#X connect 11 0 1 0;
#X restore 193 19 pd breathe;
#X obj 258 316 sticks;
#X obj 314 315 sticks;
#X obj 119 253 hang;
#X obj 177 256 hang;
#X obj 234 257 hang;
#X connect 0 0 2 0;
#X connect 0 0 21 0;
#X connect 2 0 22 0;
#X connect 3 0 11 0;
#X connect 3 0 12 0;
#X connect 3 0 13 0;
#X connect 4 0 13 1;
#X connect 5 0 23 0;
#X connect 6 0 12 1;
#X connect 7 0 11 1;
#X connect 8 0 24 0;
#X connect 9 0 0 0;
#X connect 9 0 25 0;
#X connect 10 0 18 0;
#X connect 11 0 9 0;
#X connect 11 0 15 0;
#X connect 12 0 8 0;
#X connect 12 0 14 0;
#X connect 13 0 5 0;
#X connect 13 0 10 0;
#X connect 14 0 16 0;
#X connect 15 0 17 0;
#X connect 16 0 6 0;
#X connect 17 0 7 0;
#X connect 18 0 4 0;
#X connect 20 0 3 0;
#X connect 21 0 1 0;
#X connect 22 0 1 1;
#X connect 23 0 19 0;
#X connect 23 1 19 1;
#X connect 24 0 19 0;
#X connect 24 1 19 1;
#X connect 25 0 19 0;
#X connect 25 1 19 1;
#X restore 440 128 pd windchime;
#N canvas 977 38 658 893 banger 0;
#X obj 193 51 tgl 54 0 empty empty empty 0 -10 0 12 #fcfcfc #000000 #000000 0 1;
#X obj 59 157 bng 19 250 50 0 empty empty empty 0 -10 0 12 #fcfcfc #000000 #000000;
#X obj 170 156 bng 19 250 50 0 empty empty empty 0 -10 0 12 #fcfcfc #000000 #000000;
#X obj 288 162 bng 19 250 50 0 empty empty empty 0 -10 0 12 #fcfcfc #000000 #000000;
#X obj 188 462 dac~;
#N canvas 266 304 447 467 breathe 0;
#X text 79 60 Quantise things through multiplication?;
#X obj 116 145 snapshot~;
#X floatatom 117 226 5 0 0 0 - - - 0;
#X obj 46 109 metro 10;
#X obj 45 79 tgl 19 0 empty empty empty 0 -10 0 12 #fcfcfc #000000 #000000 0 1;
#X obj 41 26 loadbang;
#X msg 43 51 1;
#X obj 119 194 / 2;
#X msg 117 286 size \$1;
#X obj 115 259 * 10;
#X obj 116 168 + 10;
#X obj 118 112 osc~ 0.4;
#X obj 115 333 outlet;
#X obj 234 357 tgl 47 0 empty empty empty 0 -10 0 12 #fcfcfc #000000 #000000 0 1;
#X floatatom 239 261 5 0 0 0 - - - 0;
#X floatatom 237 302 5 0 0 0 - - - 0;
#X msg 298 321 size \$1;
#X obj 353 375 bng 47 250 50 0 empty empty empty 0 -10 0 12 #fcfcfc #000000 #000000;
#X connect 1 0 10 0;
#X connect 2 0 9 0;
#X connect 3 0 1 0;
#X connect 4 0 3 0;
#X connect 5 0 6 0;
#X connect 6 0 4 0;
#X connect 7 0 2 0;
#X connect 8 0 12 0;
#X connect 9 0 8 0;
#X connect 10 0 7 0;
#X connect 11 0 1 0;
#X connect 15 0 16 0;
#X connect 16 0 13 0;
#X connect 16 0 17 0;
#X restore 193 19 pd breathe;
#X obj 73 382 thumper;
#X obj 178 388 snapper;
#X obj 282 391 hatter;
#X obj 194 125 metro 100;
#X obj 99 125 metro 100;
#X obj 288 122 metro 100;
#X obj 300 204 random 8;
#X obj 300 230 sel 0;
#X floatatom 300 354 5 0 0 0 - - - 0;
#X obj 193 307 + 320;
#X obj 193 193 random 8;
#X obj 193 219 sel 0;
#X floatatom 193 343 5 0 0 0 - - - 0;
#X obj 98 192 random 8;
#X obj 98 218 sel 0;
#X floatatom 98 342 5 0 0 0 - - - 0;
#X obj 98 306 + 640;
#X obj 300 318 + 160;
#X obj 97 277 * 50;
#X obj 299 289 * 25;
#X obj 192 278 * 200;
#X obj 98 248 random 6;
#X obj 193 249 random 4;
#X obj 300 260 random 8;
#X connect 0 0 9 0;
#X connect 0 0 10 0;
#X connect 0 0 11 0;
#X connect 1 0 6 0;
#X connect 1 0 19 0;
#X connect 2 0 7 0;
#X connect 2 0 16 0;
#X connect 3 0 8 0;
#X connect 3 0 12 0;
#X connect 5 0 0 0;
#X connect 6 0 4 0;
#X connect 6 1 4 1;
#X connect 7 0 4 0;
#X connect 7 1 4 1;
#X connect 8 0 4 0;
#X connect 8 1 4 1;
#X connect 9 0 2 0;
#X connect 10 0 1 0;
#X connect 11 0 3 0;
#X connect 12 0 13 0;
#X connect 13 0 29 0;
#X connect 14 0 11 1;
#X connect 15 0 18 0;
#X connect 16 0 17 0;
#X connect 17 0 28 0;
#X connect 18 0 9 1;
#X connect 19 0 20 0;
#X connect 20 0 27 0;
#X connect 21 0 10 1;
#X connect 22 0 21 0;
#X connect 23 0 14 0;
#X connect 24 0 22 0;
#X connect 25 0 23 0;
#X connect 26 0 15 0;
#X connect 27 0 24 0;
#X connect 28 0 26 0;
#X connect 29 0 25 0;
#X restore 440 159 pd banger;
#X text 432 473 MISC OBJECTS;
#X text 267 468 FX OBJECTS;
#X text 57 467 AUDIO OBJECTS;
#X text 57 307 NOTE OBJECTS;
#X text 263 309 TEXT OBJECTS;
#X text 435 309 SEQUENCING;
#X text 437 102 MUSIC MACHINES;
#X text 263 106 NUMBER OBJECTS;
#X text 49 97 BANG-BASED OBJECTS;
#X text 88 21 =========================================================== ECOSYSTEM v0.1 ===========================================================;
#X floatatom 276 242 5 0 0 0 - - - 0;
#X obj 274 150 tgl 19 0 empty empty empty 0 -10 0 12 #fcfcfc #000000 #000000 0 1;
#X obj 275 211 counter 16;
#N canvas 577 41 969 616 seq 0;
#X obj 101 380 tgl 19 0 empty empty empty 0 -10 0 12 #fcfcfc #000000 #000000 0 1;
#X obj 94 268 route 1 2 3 4 5 6 7 8, f 31;
#X obj 92 312 bng 19 250 50 0 empty empty empty 0 -10 0 12 #fcfcfc #000000 #000000;
#X obj 117 312 bng 19 250 50 0 empty empty empty 0 -10 0 12 #fcfcfc #000000 #000000;
#X obj 144 312 bng 19 250 50 0 empty empty empty 0 -10 0 12 #fcfcfc #000000 #000000;
#X obj 175 311 bng 19 250 50 0 empty empty empty 0 -10 0 12 #fcfcfc #000000 #000000;
#X obj 201 312 bng 19 250 50 0 empty empty empty 0 -10 0 12 #fcfcfc #000000 #000000;
#X obj 230 311 bng 19 250 50 0 empty empty empty 0 -10 0 12 #fcfcfc #000000 #000000;
#X obj 259 309 bng 19 250 50 0 empty empty empty 0 -10 0 12 #fcfcfc #000000 #000000;
#X obj 286 309 bng 19 250 50 0 empty empty empty 0 -10 0 12 #fcfcfc #000000 #000000;
#X obj 95 173 i;
#X obj 130 173 + 1;
#X obj 94 140 bng 19 250 50 0 empty empty empty 0 -10 0 12 #fcfcfc #000000 #000000;
#X floatatom 94 206 5 0 0 0 - - - 0;
#X obj 165 202 sel 1;
#X msg 164 232 1;
#X obj 164 174 > 7;
#X obj 88 431 sel 1;
#X obj 88 485 bng 19 250 50 0 empty empty empty 0 -10 0 12 #fcfcfc #000000 #000000;
#X listbox 88 405 5 0 0 0 - - - 0;
#X obj 150 385 tgl 19 0 empty empty empty 0 -10 0 12 #fcfcfc #000000 #000000 0 1;
#X obj 137 431 sel 1;
#X obj 137 485 bng 19 250 50 0 empty empty empty 0 -10 0 12 #fcfcfc #000000 #000000;
#X listbox 137 410 5 0 0 0 - - - 0;
#X obj 191 388 tgl 19 0 empty empty empty 0 -10 0 12 #fcfcfc #000000 #000000 0 1;
#X obj 178 431 sel 1;
#X obj 178 485 bng 19 250 50 0 empty empty empty 0 -10 0 12 #fcfcfc #000000 #000000;
#X listbox 178 413 5 0 0 0 - - - 0;
#X obj 238 385 tgl 19 0 empty empty empty 0 -10 0 12 #fcfcfc #000000 #000000 0 1;
#X obj 225 431 sel 1;
#X obj 225 485 bng 19 250 50 0 empty empty empty 0 -10 0 12 #fcfcfc #000000 #000000;
#X listbox 225 410 5 0 0 0 - - - 0;
#X obj 365 390 tgl 19 0 empty empty empty 0 -10 0 12 #fcfcfc #000000 #000000 0 1;
#X obj 352 431 sel 1;
#X obj 352 485 bng 19 250 50 0 empty empty empty 0 -10 0 12 #fcfcfc #000000 #000000;
#X listbox 352 415 5 0 0 0 - - - 0;
#X obj 418 393 tgl 19 0 empty empty empty 0 -10 0 12 #fcfcfc #000000 #000000 0 1;
#X obj 405 431 sel 1;
#X obj 405 485 bng 19 250 50 0 empty empty empty 0 -10 0 12 #fcfcfc #000000 #000000;
#X listbox 405 418 5 0 0 0 - - - 0;
#X obj 474 387 tgl 19 0 empty empty empty 0 -10 0 12 #fcfcfc #000000 #000000 0 1;
#X obj 461 431 sel 1;
#X obj 461 485 bng 19 250 50 0 empty empty empty 0 -10 0 12 #fcfcfc #000000 #000000;
#X listbox 461 412 5 0 0 0 - - - 0;
#X obj 300 390 tgl 19 0 empty empty empty 0 -10 0 12 #fcfcfc #000000 #000000 0 1;
#X obj 287 431 sel 1;
#X obj 287 485 bng 19 250 50 0 empty empty empty 0 -10 0 12 #fcfcfc #000000 #000000;
#X listbox 287 415 5 0 0 0 - - - 0;
#X obj 93 96 inlet;
#X obj 88 533 outlet;
#X obj 137 533 outlet;
#X obj 178 533 outlet;
#X obj 234 535 outlet;
#X obj 291 535 outlet;
#X obj 352 534 outlet;
#X obj 408 536 outlet;
#X obj 463 536 outlet;
#X obj 352 125 inlet;
#X floatatom 354 234 5 0 0 0 - - - 0;
#X obj 353 194 random 2;
#X obj 352 155 bng 19 250 50 0 empty empty empty 0 -10 0 12 #fcfcfc #000000 #000000;
#X obj 425 496 outlet;
#X floatatom 424 233 5 0 0 0 - - - 0;
#X obj 423 193 random 2;
#X floatatom 493 234 5 0 0 0 - - - 0;
#X obj 492 194 random 2;
#X floatatom 563 233 5 0 0 0 - - - 0;
#X obj 562 193 random 2;
#X floatatom 637 234 5 0 0 0 - - - 0;
#X obj 636 194 random 2;
#X floatatom 712 231 5 0 0 0 - - - 0;
#X obj 711 191 random 2;
#X floatatom 779 231 5 0 0 0 - - - 0;
#X obj 778 191 random 2;
#X floatatom 849 230 5 0 0 0 - - - 0;
#X obj 848 190 random 2;
#X connect 0 0 19 0;
#X connect 1 0 2 0;
#X connect 1 1 3 0;
#X connect 1 2 4 0;
#X connect 1 3 5 0;
#X connect 1 4 6 0;
#X connect 1 5 7 0;
#X connect 1 6 8 0;
#X connect 1 7 9 0;
#X connect 2 0 19 0;
#X connect 3 0 23 0;
#X connect 4 0 27 0;
#X connect 5 0 31 0;
#X connect 6 0 47 0;
#X connect 7 0 35 0;
#X connect 8 0 39 0;
#X connect 9 0 43 0;
#X connect 10 0 11 0;
#X connect 10 0 13 0;
#X connect 10 0 16 0;
#X connect 11 0 10 1;
#X connect 12 0 10 0;
#X connect 13 0 1 0;
#X connect 14 0 15 0;
#X connect 15 0 10 1;
#X connect 16 0 14 0;
#X connect 17 0 18 0;
#X connect 18 0 49 0;
#X connect 19 0 17 0;
#X connect 20 0 23 0;
#X connect 21 0 22 0;
#X connect 22 0 50 0;
#X connect 23 0 21 0;
#X connect 24 0 27 0;
#X connect 25 0 26 0;
#X connect 26 0 51 0;
#X connect 27 0 25 0;
#X connect 28 0 31 0;
#X connect 29 0 30 0;
#X connect 30 0 52 0;
#X connect 31 0 29 0;
#X connect 32 0 35 0;
#X connect 33 0 34 0;
#X connect 34 0 54 0;
#X connect 35 0 33 0;
#X connect 36 0 39 0;
#X connect 37 0 38 0;
#X connect 38 0 55 0;
#X connect 39 0 37 0;
#X connect 40 0 43 0;
#X connect 41 0 42 0;
#X connect 42 0 56 0;
#X connect 43 0 41 0;
#X connect 44 0 47 0;
#X connect 45 0 46 0;
#X connect 46 0 53 0;
#X connect 47 0 45 0;
#X connect 48 0 12 0;
#X connect 57 0 60 0;
#X connect 58 0 0 0;
#X connect 59 0 58 0;
#X connect 60 0 59 0;
#X connect 60 0 63 0;
#X connect 60 0 65 0;
#X connect 60 0 67 0;
#X connect 60 0 69 0;
#X connect 60 0 71 0;
#X connect 60 0 73 0;
#X connect 60 0 75 0;
#X connect 62 0 20 0;
#X connect 63 0 62 0;
#X connect 64 0 24 0;
#X connect 65 0 64 0;
#X connect 66 0 28 0;
#X connect 67 0 66 0;
#X connect 68 0 44 0;
#X connect 69 0 68 0;
#X connect 70 0 32 0;
#X connect 71 0 70 0;
#X connect 72 0 36 0;
#X connect 73 0 72 0;
#X connect 74 0 40 0;
#X connect 75 0 74 0;
#X restore 438 337 pd seq;
#X f 22;
#X obj 429 265 bng 19 250 50 0 empty empty empty 0 -10 0 12 #fcfcfc #000000 #000000;
#X obj 591 277 bng 19 250 50 0 empty empty empty 0 -10 0 12 #fcfcfc #000000 #000000;
#X obj 365 416 blip 240 50;
#X obj 550 417 blip 660 200;
#X obj 472 236 sel 16;
#X obj 274 179 metro 300;
#X obj 361 678 bng 19 250 50 0 empty empty empty 0 -10 0 12 #fcfcfc #000000 #000000;
#X obj 438 678 bng 19 250 50 0 empty empty empty 0 -10 0 12 #fcfcfc #000000 #000000;
#X obj 520 674 bng 19 250 50 0 empty empty empty 0 -10 0 12 #fcfcfc #000000 #000000;
#X obj 368 527 tgl 19 0 empty empty empty 0 -10 0 12 #fcfcfc #000000 #000000 0 1;
#X obj 376 562 metro 200;
#X obj 331 735 blip 240 50;
#X obj 421 736 blip 440 100;
#X obj 516 736 blip 660 60;
#X obj 460 563 metro 400;
#X obj 539 563 metro 100;
#X obj 434 639 every 15;
#X obj 518 637 every 14;
#X obj 358 637 every 13;
#X obj 455 417 blip 160 100;
#X obj 643 416 blip 1295 30;
#X obj 178 643 FM-plink;
#X obj 192 708 dac~;
#X obj 197 545 bng 19 250 50 0 empty empty empty 0 -10 0 12 #fcfcfc #000000 #000000;
#X obj 200 450 metro 2000;
#X obj 196 418 tgl 19 0 empty empty empty 0 -10 0 12 #fcfcfc #000000 #000000 0 1;
#X connect 26 0 34 0;
#X connect 27 0 35 0;
#X connect 28 0 26 0;
#X connect 29 0 32 0;
#X connect 29 1 49 0;
#X connect 29 2 32 0;
#X connect 29 3 32 0;
#X connect 29 3 33 0;
#X connect 29 4 32 0;
#X connect 29 5 32 0;
#X connect 29 5 49 0;
#X connect 29 6 32 0;
#X connect 29 6 50 0;
#X connect 29 7 32 0;
#X connect 29 7 33 0;
#X connect 29 8 32 0;
#X connect 30 0 29 0;
#X connect 31 0 29 1;
#X connect 34 0 31 0;
#X connect 35 0 28 0;
#X connect 36 0 41 0;
#X connect 37 0 42 0;
#X connect 38 0 43 0;
#X connect 38 0 30 0;
#X connect 39 0 40 0;
#X connect 39 0 44 0;
#X connect 39 0 45 0;
#X connect 40 0 46 0;
#X connect 40 0 47 0;
#X connect 40 0 48 0;
#X connect 44 0 46 0;
#X connect 44 0 48 0;
#X connect 45 0 47 0;
#X connect 45 0 48 0;
#X connect 46 0 37 0;
#X connect 47 0 38 0;
#X connect 48 0 36 0;
#X connect 51 0 52 0;
#X connect 51 0 52 1;
#X connect 53 0 51 0;
#X connect 54 0 53 0;
#X connect 55 0 54 0;
