#N canvas 1221 38 507 974 12;
#X obj 107 167 bng 19 250 50 0 empty empty empty 0 -10 0 12 #fcfcfc #000000 #000000;
#X obj 107 132 inlet;
#X obj 108 268 bng 19 250 50 0 empty empty empty 0 -10 0 12 #fcfcfc #000000 #000000;
#X obj 108 292 outlet;
#X obj 107 204 counter \$1;
#X obj 107 236 sel \$1;
#X connect 0 0 4 0;
#X connect 1 0 0 0;
#X connect 2 0 3 0;
#X connect 4 0 5 0;
#X connect 5 0 2 0;
