#N canvas 501 38 1227 971 12;
#X obj 192 466 osc~ 400, f 12;
#X obj 192 543 *~;
#X obj 293 466 osc~ 400.1, f 14;
#X obj 401 208 bng 19 250 50 0 empty empty empty 0 -10 0 12 #fcfcfc #000000 #000000;
#X obj 416 465 osc~ 400, f 12;
#X obj 518 465 osc~ 400.1, f 14;
#X obj 192 423 + 100;
#X obj 293 420 + 100;
#X obj 416 423 + 100;
#X obj 518 421 + 100;
#X obj 703 473 line;
#X floatatom 703 535 5 0 0 0 - - - 0;
#X obj 192 500 +~;
#X obj 416 501 +~;
#X obj 192 590 *~;
#X msg 703 367 1 \, 0 \$1;
#X obj 703 330 + 50;
#X obj 403 165 inlet;
#X obj 192 631 outlet~;
#X obj 192 392 random 1000;
#X obj 293 387 random 1000;
#X obj 416 387 random 1000;
#X obj 518 387 random 1000;
#X obj 703 297 random 2000;
#X connect 0 0 12 0;
#X connect 1 0 14 0;
#X connect 2 0 12 1;
#X connect 3 0 15 0;
#X connect 3 0 19 0;
#X connect 3 0 20 0;
#X connect 3 0 21 0;
#X connect 3 0 22 0;
#X connect 3 0 23 0;
#X connect 4 0 13 0;
#X connect 5 0 13 1;
#X connect 6 0 0 0;
#X connect 7 0 2 0;
#X connect 8 0 4 0;
#X connect 9 0 5 0;
#X connect 10 0 11 0;
#X connect 11 0 14 1;
#X connect 12 0 1 0;
#X connect 13 0 1 1;
#X connect 14 0 18 0;
#X connect 15 0 10 0;
#X connect 15 0 9 1;
#X connect 15 0 7 1;
#X connect 16 0 15 0;
#X connect 16 0 6 1;
#X connect 16 0 8 1;
#X connect 17 0 3 0;
#X connect 19 0 6 0;
#X connect 20 0 7 0;
#X connect 21 0 8 0;
#X connect 22 0 9 0;
#X connect 23 0 16 0;
