#N canvas 92 130 839 657 12;
#X msg 84 209 start;
#X obj 83 125 bng 19 250 50 0 empty empty empty 0 -10 0 12 #fcfcfc #000000 #000000;
#X floatatom 166 205 5 0 0 0 - - - 0;
#X msg 166 263 open \$1;
#X obj 83 176 delay 20;
#X obj 73 30 inlet;
#X obj 111 605 outlet~;
#X obj 190 606 outlet~;
#X floatatom 44 451 5 0 0 0 - - - 0;
#X obj 43 375 random 1000;
#X obj 36 413 / 1000;
#X floatatom 312 455 5 0 0 0 - - - 0;
#X obj 311 379 random 1000;
#X obj 313 413 / 1000;
#X obj 136 519 *~;
#X obj 205 529 *~;
#X obj 166 232 makefilename samples/hang/hang_%02d.wav;
#X obj 166 175 random 9;
#X obj 134 331 readsf~ 2;
#X connect 0 0 18 0;
#X connect 1 0 4 0;
#X connect 1 0 9 0;
#X connect 1 0 12 0;
#X connect 1 0 17 0;
#X connect 2 0 16 0;
#X connect 3 0 18 0;
#X connect 4 0 0 0;
#X connect 5 0 1 0;
#X connect 8 0 14 1;
#X connect 9 0 10 0;
#X connect 10 0 8 0;
#X connect 11 0 15 1;
#X connect 12 0 13 0;
#X connect 13 0 11 0;
#X connect 14 0 6 0;
#X connect 15 0 7 0;
#X connect 16 0 3 0;
#X connect 17 0 2 0;
#X connect 18 1 15 0;
#X connect 18 1 14 0;
