#N canvas 501 38 1227 970 12;
#X obj 273 617 dac~;
#X obj 204 218 bng 100 250 50 0 empty empty empty 0 -10 0 12 #fcfcfc #000000 #000000;
#X obj 205 357 FM-plink;
#X obj 282 356 FM-plink;
#X obj 359 357 FM-plink;
#X obj 260 535 jon~;
#X obj 235 420 +~;
#X obj 254 473 +~;
#X obj 470 425 hsl 128 15 220.5 22050 1 0 param3 param3 damping -2 -8 0 10 #fcfcfc #000000 #000000 0 0;
#X floatatom 602 424 10 0 0 0 - param3 damping 0;
#X obj 470 456 hsl 128 15 0 1 0 0 param4 param4 decay -2 -8 0 10 #fcfcfc #000000 #000000 0 0;
#X floatatom 602 455 10 0 0 0 - param4 decay 0;
#X obj 470 361 hsl 128 15 0 250 0 0 param1 param1 predelay -2 -8 0 10 #fcfcfc #000000 #000000 0 0;
#X floatatom 605 360 10 0 0 0 - param1 predelay 0;
#X obj 470 393 hsl 128 15 220.5 22050 1 0 param2 param2 bandwidth -2 -8 0 10 #fcfcfc #000000 #000000 0 0;
#X floatatom 602 392 10 0 0 0 - param2 bandwidth 0;
#X obj 469 524 hsl 128 15 0 1 0 0 param6 param6 input_diffusion_2 -2 -8 0 10 #fcfcfc #000000 #000000 0 0;
#X floatatom 601 523 10 0 0 0 - param6 input_diffusion2 0;
#X obj 470 489 hsl 128 15 0 1 0 0 param5 param5 input_diffusion_1 -2 -8 0 10 #fcfcfc #000000 #000000 0 0;
#X floatatom 602 488 10 0 0 0 - param5 input_diffusion1 0;
#X obj 468 588 hsl 128 15 0 1 0 0 param8 param8 decay_diffusion_2 -2 -8 0 10 #fcfcfc #000000 #000000 0 0;
#X floatatom 600 587 10 0 0 0 - param8 decay_diffusion2 0;
#X obj 469 555 hsl 128 15 0 1 0 0 param7 param7 decay_diffusion_1 -2 -8 0 10 #fcfcfc #000000 #000000 0 0;
#X floatatom 601 554 10 0 0 0 - param7 decay_diffusion1 0;
#X obj 468 620 hsl 128 15 0 5 0 0 param9 param9 excursion -2 -8 0 10 #fcfcfc #000000 #000000 0 0;
#X floatatom 600 619 10 0 0 0 - param9 excursion 0;
#N canvas 66 50 387 608 receive_params 0;
#X msg 58 293 input_diffusion1 \$1;
#X msg 70 349 input_diffusion2 \$1;
#X msg 78 410 decay_diffusion1 \$1;
#X msg 87 469 decay_diffusion2 \$1;
#X msg 33 75 predelay \$1;
#X msg 33 132 bandwidth \$1;
#X msg 33 183 damping \$1;
#X msg 33 238 decay \$1;
#X msg 125 533 excursion \$1;
#X obj 33 547 outlet;
#X obj 33 48 r predelay;
#X obj 33 105 r bandwidth;
#X obj 33 159 r damping;
#X obj 33 213 r decay;
#X obj 58 268 r input_diffusion1;
#X obj 70 322 r input_diffusion2;
#X obj 78 383 r decay_diffusion1;
#X obj 87 442 r decay_diffusion2;
#X obj 125 503 r excursion;
#X connect 0 0 9 0;
#X connect 1 0 9 0;
#X connect 2 0 9 0;
#X connect 3 0 9 0;
#X connect 4 0 9 0;
#X connect 5 0 9 0;
#X connect 6 0 9 0;
#X connect 7 0 9 0;
#X connect 8 0 9 0;
#X connect 10 0 4 0;
#X connect 11 0 5 0;
#X connect 12 0 6 0;
#X connect 13 0 7 0;
#X connect 14 0 0 0;
#X connect 15 0 1 0;
#X connect 16 0 2 0;
#X connect 17 0 3 0;
#X connect 18 0 8 0;
#X restore 301 502 pd receive_params;
#N canvas 0 50 474 324 presets 0;
#X msg 37 67 default;
#X msg 37 136 huge;
#X msg 37 159 huge_noexcursion;
#X msg 37 90 large;
#X msg 37 113 large_noexcursion;
#X msg 37 182 tadada;
#X msg 227 183 metallic;
#X msg 227 159 bubblebath;
#N canvas 15 98 678 492 preset_loader 0;
#X obj 40 26 inlet;
#X msg 43 122 \; param1 0 \; param2 22050 \; param3 22050 \; param4 0.5 \; param5 0.75 \; param6 0.625 \; param7 0.7 \; param8 0.5 \; param9 0.53761 \;;
#X msg 19 306 \; param1 0 \; param2 10000 \; param3 4637 \; param4 0.98 \; param5 0.685 \; param6 0.779 \; param7 0.74 \; param8 0.68 \; param9 0.53761 \;;
#X msg 199 123 \; param1 0 \; param2 10000 \; param3 4637 \; param4 0.98 \; param5 0.685 \; param6 0.779 \; param7 0.74 \; param8 0.68 \; param9 0 \;;
#X msg 181 303 \; param1 10 \; param2 10000 \; param3 4637 \; param4 0.99 \; param5 0.685 \; param6 0.779 \; param7 0.889 \; param8 0.84 \; param9 0.53761 \;;
#X msg 359 131 \; param1 10 \; param2 10000 \; param3 4637 \; param4 0.99 \; param5 0.685 \; param6 0.779 \; param7 0.889 \; param8 0.84 \; param9 0 \;;
#X msg 346 302 \; param1 216.535 \; param2 22050 \; param3 22050 \; param4 0.677165 \; param5 0.850394 \; param6 0.92126 \; param7 0.80315 \; param8 0.818898 \; param9 0.11811 \;;
#X obj 39 70 route default large large_noexcursion huge huge_noexcursion tadada;
#X connect 0 0 7 0;
#X connect 7 0 1 0;
#X connect 7 1 2 0;
#X connect 7 2 3 0;
#X connect 7 3 4 0;
#X connect 7 4 5 0;
#X connect 7 5 6 0;
#X restore 37 219 pd preset_loader;
#N canvas 15 98 678 492 preset_loader 0;
#X obj 40 26 inlet;
#X msg 39 203 \; param1 0 \; param2 22050 \; param3 22050 \; param4 0.653543 \; param5 0.629921 \; param6 0.409449 \; param7 0.889764 \; param8 0.866142 \; param9 0 \;;
#X msg 209 204 \; param1 0 \; param2 2894.14 \; param3 22050 \; param4 0.92126 \; param5 0.897638 \; param6 0.299213 \; param7 0.984252 \; param8 0.944882 \; param9 0.393701 \;;
#X obj 39 70 route metallic bubblebath;
#X connect 0 0 3 0;
#X connect 3 0 1 0;
#X connect 3 1 2 0;
#X restore 227 219 pd preset_loader;
#X obj 37 17 loadbang;
#X connect 0 0 8 0;
#X connect 1 0 8 0;
#X connect 2 0 8 0;
#X connect 3 0 8 0;
#X connect 4 0 8 0;
#X connect 5 0 8 0;
#X connect 6 0 9 0;
#X connect 7 0 9 0;
#X connect 10 0 0 0;
#X restore 364 202 pd presets;
#X obj 762 194 FM-plink;
#X obj 759 135 bng 19 250 50 0 empty empty empty 0 -10 0 12 #fcfcfc #000000 #000000;
#X obj 782 268 dac~;
#X obj 835 204 FM-plink;
#X obj 832 145 bng 19 250 50 0 empty empty empty 0 -10 0 12 #fcfcfc #000000 #000000;
#X obj 855 278 dac~;
#X obj 915 208 FM-plink;
#X obj 935 282 dac~;
#X obj 828 21 bng 19 250 50 0 empty empty empty 0 -10 0 12 #fcfcfc #000000 #000000;
#X obj 746 99 delay 100;
#X obj 769 66 random 100;
#X obj 838 102 delay 100;
#X obj 861 69 random 100;
#X obj 931 99 delay 100;
#X obj 954 66 random 500;
#X obj 207 40 bng 100 250 50 0 empty empty empty 0 -10 0 12 #fcfcfc #000000 #000000;
#X obj 319 38 bng 100 250 50 0 empty empty empty 0 -10 0 12 #fcfcfc #000000 #000000;
#X obj 430 37 bng 100 250 50 0 empty empty empty 0 -10 0 12 #fcfcfc #000000 #000000;
#X obj 866 484 +;
#X floatatom 845 430 5 0 0 0 - - - 0;
#X floatatom 932 414 5 0 0 0 - - - 0;
#X floatatom 853 553 5 0 0 0 - - - 0;
#X obj 798 413 bng 19 250 50 0 empty empty empty 0 -10 0 12 #fcfcfc #000000 #000000;
#N canvas 92 130 573 550 adder 0;
#X obj 216 66 inlet;
#X obj 176 242 outlet;
#X obj 242 184 +;
#X floatatom 221 130 5 0 0 0 - - - 0;
#X floatatom 308 114 5 0 0 0 - - - 0;
#X obj 306 56 inlet, f 11;
#X connect 0 0 3 0;
#X connect 2 0 1 0;
#X connect 3 0 2 0;
#X connect 4 0 2 1;
#X connect 5 0 4 0;
#X restore 834 684 pd adder;
#X floatatom 817 631 5 0 0 0 - - - 0;
#X floatatom 897 621 5 0 0 0 - - - 0;
#X floatatom 851 759 5 0 0 0 - - - 0;
#X connect 1 0 2 0;
#X connect 1 0 3 0;
#X connect 1 0 4 0;
#X connect 2 0 6 0;
#X connect 3 0 6 1;
#X connect 4 0 7 1;
#X connect 5 0 0 0;
#X connect 5 1 0 1;
#X connect 6 0 7 0;
#X connect 7 0 5 0;
#X connect 26 0 5 2;
#X connect 28 0 30 0;
#X connect 28 0 30 1;
#X connect 29 0 28 0;
#X connect 31 0 33 0;
#X connect 31 0 33 1;
#X connect 32 0 31 0;
#X connect 34 0 35 0;
#X connect 34 0 35 1;
#X connect 36 0 37 0;
#X connect 36 0 38 0;
#X connect 36 0 40 0;
#X connect 36 0 39 0;
#X connect 36 0 41 0;
#X connect 36 0 42 0;
#X connect 37 0 29 0;
#X connect 38 0 37 1;
#X connect 39 0 32 0;
#X connect 40 0 39 1;
#X connect 41 0 1 0;
#X connect 42 0 41 1;
#X connect 43 0 1 0;
#X connect 44 0 36 0;
#X connect 45 0 29 0;
#X connect 46 0 49 0;
#X connect 47 0 46 0;
#X connect 48 0 46 1;
#X connect 50 0 46 0;
#X connect 51 0 54 0;
#X connect 52 0 51 0;
#X connect 53 0 51 1;
