#N canvas 92 130 1061 700 12;
#N canvas 802 38 923 648 sample-hit 0;
#X obj 143 229 readsf~;
#X msg 147 184 start;
#X obj 149 132 bng 19 250 50 0 empty empty empty 0 -10 0 12 #fcfcfc #000000 #000000;
#X obj 156 53 inlet;
#X obj 158 339 outlet~;
#X msg 196 185 open samples/pad-01.wav;
#X connect 0 0 4 0;
#X connect 1 0 0 0;
#X connect 2 0 5 0;
#X connect 2 0 1 0;
#X connect 3 0 2 0;
#X connect 5 0 0 0;
#X restore 404 509 pd sample-hit;
#X obj 445 389 delay 500;
#X obj 476 433 bng 19 250 50 0 empty empty empty 0 -10 0 12 #fcfcfc #000000 #000000;
#X obj 556 467 bng 19 250 50 0 empty empty empty 0 -10 0 12 #fcfcfc #000000 #000000;
#X obj 525 423 delay 750;
#X obj 397 291 inlet;
#X obj 401 662 outlet~;
#X obj 296 456 random 100;
#X obj 301 496 / 100;
#X floatatom 321 559 5 0 0 0 - - - 0;
#X obj 403 627 *~;
#X connect 0 0 10 0;
#X connect 1 0 0 0;
#X connect 1 0 2 0;
#X connect 1 0 4 0;
#X connect 3 0 0 0;
#X connect 4 0 3 0;
#X connect 5 0 1 0;
#X connect 5 0 0 0;
#X connect 5 0 7 0;
#X connect 7 0 8 0;
#X connect 8 0 9 0;
#X connect 9 0 10 1;
#X connect 10 0 6 0;
